<?xml version="1.0" encoding="utf-8"?>
<svg version="1.1" id="图层_1" xmlns="http://www.w3.org/2000/svg" viewBox="0 0 362.8 362.8">
<rect x="-21.2" y="-26.9" fill="#E75E44" width="416.8" height="413.5"/>
<polyline fill="#EA6C54" points="80.5,-18.9 -28.9,76.2 -47.8,-35.3 "/>
<path fill="#EA6C54" d="M273.9-48.8c0,0,92.2,108.8,103.6,166.8S400.3-63,400.3-63"/>
<path fill="#EF7860" d="M312.8-15.3c0.3-0.1,0.5-0.1,0.8-0.2c5.7-1.2,11.1-1.1,17-1.1c7,0.3,14.1,0.6,20.6,3.1
	c-0.2,2.3-0.5,4.7-1.8,6.6c-0.6,0.9-1.4,1.6-2.1,2.4c-7.2,6.8-15.6,12.2-24,17.4c-8.3,5.1-17,9.2-26.3,12.4
	c-8.4,2.9-17,5.2-25.8,6.8c-5.4,1-11,1.7-16.4,0.9c-0.9-0.1-2.1-0.5-2.2-1.5c-0.1-0.9,0.9-1.5,1.7-1.9c8.6-4,16.9-8.7,25-13.6
	c3.9-2.3,7.8-4.5,11.1-7.6c3.3-3,6.4-6.4,9.3-9.8c1.6-1.9,3.3-3.9,4.9-5.8c1.7-2,3.3-4,5-6c0.5-0.6,1-1.3,1.7-1.7
	C311.9-15,312.4-15.2,312.8-15.3z"/>
<path fill="#CD543D" d="M140.3,216.5c-1.6,1.9-3.4,3.7-5.2,5.6c-1.8,1.8-3.7,3.6-5.7,5.3c-2.2,2.2-4.6,4-7.2,5.5
	c-2.5,1.5-5.2,2.8-7.9,3.8c-5.7,2-11.5,3.2-17.3,3.8c-2.9,0.3-5.8,0.4-8.7,0.4c-24.9,0.7-49.9-10.3-68.4-27.4
	c-1.4-1.6-2.6-3.3-3.8-5.2c-1.1-1.9-2.1-3.9-2.9-6.1c-3.6-9.8-2.8-18.7-0.5-28.4c4.2-17.5,12.8-32.7,22.9-47
	c10-14.1,21.4-27.1,35.9-37.4C83.5,81,96.5,76,110.1,72.9c2.7-0.6,5.5-1.2,8.2-1.6c11.4,0.1,20.3,5.3,27.1,13.2
	c1.4,1.6,2.6,3.3,3.8,5c1.5,3,2.9,6.1,4.2,9.2c9.1,25.9,10.1,53.9,4.6,80.6c-0.7,2.6-1.5,5.2-2.3,7.7c-0.9,3.1-1.9,6.1-3,8.8
	c-2.2,5.7-5.2,11.7-8.7,16.3C142.8,213.7,141.6,215.2,140.3,216.5z"/>
<path fill="#CD553E" d="M353.7,184c0.1,5-0.5,9.6-1.7,14.1c-1.2,4.4-2.9,8.5-5.2,12.4c-15.4,24.2-44.4,35.2-71.4,33.2
	c-24-2-45-16-55.7-38c-1.6-3-3-6.1-4.3-9.2c-6.4-15.8-9.2-33.5-11.5-49.4c-0.1-2.2-0.2-4.4-0.2-6.7c0-11.4,1.6-23.5,5.5-34.6
	c0.9-2.6,2-5.2,3.2-7.7c9.4-24.6,31.6-28,53-21.7c4.3,1.3,8.5,2.9,12.6,4.9c3.5,1.8,7,3.8,10.3,6c3.3,2.1,6.5,4.4,9.6,6.8
	c2.7,2.1,5.4,4.2,8,6.5c2.6,2.3,5.1,4.6,7.5,7c14.2,14.3,25.6,32,32.8,50.8c1.4,3.8,2.7,7.6,3.8,11.4
	C351.5,175.3,352.6,180.3,353.7,184z"/>
<path fill="#FDBE01" d="M172.7,244.6c1.6,0.7,3.3,1.3,5,1.8c2.2,0.5,4.6,1.3,6.6,0.8c7.6-2,15-4.5,22.6-6.6c1.5-0.4,3-0.8,4.6-1.2
	c17.1-4.8,38.1,9.2,38.1,27.2c0,1.5-0.2,2.9-0.6,4.3c-1.8,6.9-7.6,12.5-13.5,16.4c-1.5,0.9-3,1.7-4.6,2.5
	c-7.9,3.7-17.2,5.5-25.6,6.9c-1.9,0.3-3.7,0.6-5.5,0.9c-5.8,0.6-11.5,0.9-17.3,0.9c-1.9,0-3.8-0.1-5.7-0.1c-1.8-0.2-3.7-0.4-5.5-0.6
	c-7.9-0.1-16.3-1.4-24.1-4.2c-1.6-0.5-3.1-1.2-4.6-1.8c-17.1-5.3-30.1-23.3-20.5-41c0.6-1.3,1.3-2.6,2.1-3.8
	c4-6,10.7-10.2,17.9-10.2C155.2,237,164.5,241.7,172.7,244.6z"/>
<path fill="#EA6B53" d="M42.1,252.6c0,9.1-6.6,15.9-15.6,16.1c-4.6,0.1-12.3-6.7-12.3-10.9c0-8,9.6-18.6,16.9-18.6
	C37.8,239.1,42.1,244.3,42.1,252.6z"/>
<path fill="#EA6B53" d="M332.8,264c-5.8,0-12.6-5.9-12.7-10.9c-0.1-6.3,9.6-14.1,17.5-14.1c7.1,0,12.3,5.4,12.2,12.6
	C349.9,258.8,342.7,264,332.8,264z"/>
<path fill="#EE775F" d="M155.8,51.4c-3.6,0-7.6-0.4-12.2-1.7c-1.1-0.3-2.5-1-2.5-1.8c0-0.4,0.4-0.7,0.8-0.9c0.9-0.5,2.1-0.5,3.2-0.5
	c10.9-0.2,20.3-1,29.2-1.9c4.4-0.6,8.8-1.2,13.6-1.9c4.4-0.6,9.5-1.8,14.5-2.6c1.1-0.2,2.2-0.2,3.1,0.1s1.3,1.3,0.8,2.2
	c-0.5,0.8-1.5,1.3-2.5,1.7c-6.2,2.7-11.9,3.6-16.9,4.4c-7.3,0.9-13.7,1.6-20.2,2.2C163.3,50.9,159.7,51.4,155.8,51.4z"/>
<path fill="#EA6B53" d="M191.6,308.9c0.3,0,0.7,0,1,0c0.7,0,1.4,0.1,2.1,0.5c0.9,0.5,1.7,1.6,2.1,2.6s0.5,2,0.3,2.8
	c-0.3,2.3-1.6,4.8-3.4,6.4c-2.2,2-6.3,2.1-8.9,1.3c-1-0.3-2.1-0.9-2.8-2c-0.8-1.2-0.9-2.8-0.7-4c0.4-2.6,2.1-4.8,4.1-6.1
	C187.2,309.3,189.3,308.9,191.6,308.9z"/>
<path fill="#FBF9F8" d="M146.7,163.1c0.7,17.6-7.3,37.6-19.9,50.8c-1.2,1.3-2.5,2.6-3.8,3.8c-2.6,2.4-5.5,4.5-8.5,6.3
	c-1.7,1-3.5,1.9-5.4,2.7c-9.9,3.1-20.8,4.3-31.2,2.9c-2.1-0.3-4.1-0.7-6.2-1.2c-19.4-4.6-37.4-21.6-35.7-42.4c0-1.9,0.2-3.9,0.5-5.8
	c1.1-7.8,4.1-15.5,8.3-22.2c1-1.7,2.1-3.4,3.2-5c7.9-11.5,18.1-20.9,29.4-29.7c1.2-0.9,2.4-1.7,3.6-2.5c6.1-3.9,12.7-6.9,19.9-8.4
	c1.7-0.5,3.5-0.9,5.2-1.2c1.8-0.3,3.5-0.5,5.3-0.6c18.9-1.9,31.9,18.1,33.8,34.7c0.4,2,0.6,4,0.8,6c0.2,2,0.3,4.1,0.4,6.2
	C146.7,159.3,146.8,161.2,146.7,163.1z"/>
<path fill="#FCF9F8" d="M220.4,153.1c0-4.3-0.1-8.6,0.2-12.9c0.3-4.3,0.9-8.4,2.4-12.3c1-2.6,2.5-5,4.5-7.3c25-22,64,1,83,21.7
	c2.1,2.3,4.1,4.7,6,7.1c1.9,2.5,3.7,5.1,5.3,7.7c1.7,2.7,3.3,5.5,4.7,8.4c5.5,11.5,8,24.2,6,37c-1,3-2.3,5.8-3.9,8.3
	c-2.7,4.3-6,7.9-9.7,10.9c-3.7,3-7.9,5.3-12.3,7.1c-23.1,9.8-49.1,0.8-66.1-17.2c-12-14-18-31-19.6-48.7
	C220.5,159.7,220.4,156.4,220.4,153.1z"/>
<path fill="#E89400" d="M178.5,275.7c-2.6-0.1-5.3-0.3-7.9-0.5c-4.1-0.3-16.6-3.1-14.1-9.6c1-2.5,4.2-1.8,6.2-1.3
	c3.5,0.9,6.8,2.2,10.4,2.9c7.6,1.5,16.9,0.3,24.2-2.4c3.8-1.4,11.1-4.9,13.2,0.8c2.5,6.7-8.8,7.8-12.8,8.7
	C191.2,275.7,184.9,275.9,178.5,275.7z"/>
<path fill="#EF7860" d="M34.1,22.1c0.9,0.6,1.7,1.2,2.6,1.8c0.9,0.6,1.8,1.2,2.8,1.7c7.7,4.9,15.9,8.3,24.3,11.1
	c1.2,0.4,2.4,0.8,3.6,1.1c5,0.8,9,2.8,14,3.9c1,0.3,2,0.5,3,0.8c4,1,8,2,12,2.9c0.7,0.3,1.6,0.9,1.5,1.7c-0.1,0.8-1,1.1-1.8,1.3
	c-1.1,0.3-2.3,0.5-3.4,0.7c-1.2,0.2-5.7,1.1-9,1.5c-4.3,0.5-9.9,0.5-16.2,0c-1.3-0.1-2.5-0.2-3.8-0.4c-13.3-1.7-26.3-2.7-38.9-7.1
	c-1.1-0.4-2.1-0.7-3.2-1.1c-5.3-1.9-10.4-4-15.2-6.4c-1.3-0.7-2.5-1.4-3.7-2.1c-4.9-3-9.3-6.6-13.3-11c-1-0.9-2-1.9-3-2.8
	c-2-1.9-3.9-3.9-5.7-5.8c-0.4-0.4-0.8-0.8-0.8-1.4c-0.1-0.6,0.3-1.1,0.6-1.6c3-4.3,5.9-8.5,8.9-12.8c1.7-2.4,3.3-4.8,5.3-6.9
	c0.5-0.5,1-1,1.7-0.9C-3-9.5-2.7-9.2-2.3-8.9C6.8-0.2,16.4,8.1,26.4,16C29,18,31.5,20.2,34.1,22.1z"/>
<path fill="#70392A" d="M93.7,137.2c-5.4,0-10.5,1.1-15.2,3c7.8,1.1,13.8,7.8,13.8,15.9c0,8.9-7.2,16-16,16c-8.9,0-16-7.2-16-16
	c0-0.2,0-0.5,0-0.7c-4.1,6.3-6.5,13.7-6.5,21.7c0,22,17.9,39.9,39.9,39.9c22,0,39.9-17.9,39.9-39.9
	C133.6,155.1,115.7,137.2,93.7,137.2z"/>
<path fill="#70392A" d="M275.1,137.2c-5.4,0-10.5,1.1-15.2,3c7.8,1.1,13.8,7.8,13.8,15.9c0,8.9-7.2,16-16,16c-8.9,0-16-7.2-16-16
	c0-0.2,0-0.5,0-0.7c-4.1,6.3-6.5,13.7-6.5,21.7c0,22,17.9,39.9,39.9,39.9c22,0,39.9-17.9,39.9-39.9
	C315,155.1,297.2,137.2,275.1,137.2z"/>
<path fill="#F7B103" d="M-47.8,101.2c28.2,8.2,70.1,7.4,82.6,4.2c-17.8,14.3-69.5,34.6-84.1,35.3C-63.9,141.5-47.8,101.2-47.8,101.2
	z"/>
<path fill="#EF7860" d="M-4.3-11.5C22.3,19,51.5,37.5,100.2,47C49.6,60.5-18.8,30.4-26.2,11.8"/>
<path fill="#EF7860" d="M314.7-22.1C303.3-2.9,282.6,21.3,247,34.2c62.4-0.4,110.9-40.3,116.2-52.4"/>
</svg>
